<?xml version="1.0" standalone="no"?>
<!DOCTYPE svg PUBLIC "-//W3C//DTD SVG 20010904//EN"
 "http://www.w3.org/TR/2001/REC-SVG-20010904/DTD/svg10.dtd">
<svg version="1.0" xmlns="http://www.w3.org/2000/svg"
 width="306.000000pt" height="306.000000pt" viewBox="0 0 306.000000 306.000000"
 preserveAspectRatio="xMidYMid meet">
<metadata>
Created by potrace 1.16, written by Peter Selinger 2001-2019
</metadata>
<g transform="translate(0.000000,306.000000) scale(0.100000,-0.100000)"
fill="#000000" stroke="none">
<path d="M1295 3045 c-635 -101 -1131 -570 -1265 -1195 -44 -202 -37 -620 10
-620 10 0 26 7 34 16 9 8 17 16 18 17 1 1 4 94 7 207 l6 205 83 3 82 3 0 -201
c0 -224 -8 -270 -53 -325 -32 -39 -96 -74 -134 -75 -22 0 -22 0 8 -80 171
-471 570 -830 1059 -955 175 -45 428 -58 605 -31 679 104 1192 620 1294 1303
14 90 14 337 1 423 -54 348 -199 638 -435 875 -238 237 -544 389 -878 434
-104 14 -342 12 -442 -4z m-542 -1387 c105 -45 120 -90 115 -332 l-3 -139 -48
-12 c-27 -7 -61 -22 -75 -34 -118 -93 -288 -101 -380 -17 -36 32 -52 70 -52
123 0 109 70 162 248 188 120 18 142 27 142 60 0 50 -69 77 -142 56 -31 -10
-43 -20 -54 -47 l-14 -34 -80 0 -80 0 0 32 c0 142 243 232 423 156z m568 1
l46 -20 54 22 c138 57 327 6 372 -100 6 -15 12 -119 15 -246 3 -188 2 -223
-11 -233 -10 -9 -41 -12 -89 -10 l-73 3 -5 218 -5 219 -28 24 c-30 26 -52 29
-91 14 -46 -17 -51 -41 -56 -265 l-5 -210 -80 0 -80 0 -5 225 c-3 124 -7 226
-8 227 -16 18 -70 34 -98 28 -63 -11 -68 -32 -74 -270 l-5 -210 -80 0 -80 0
-3 223 c-2 202 -1 227 17 267 47 107 232 153 372 94z m940 11 c53 -14 102 -51
121 -90 15 -30 18 -64 18 -217 l0 -183 -25 0 c-29 0 -75 -21 -121 -56 -82 -63
-214 -76 -307 -31 -91 45 -126 125 -92 212 28 74 101 113 245 130 99 12 129
23 136 51 22 85 -168 99 -197 14 -11 -30 -11 -30 -89 -30 -44 0 -82 5 -85 10
-9 15 14 80 41 116 57 76 219 110 355 74z m599 -65 l0 -75 -84 0 c-134 0 -130
7 -136 -247 l-5 -208 -80 0 -80 0 0 225 0 225 27 46 c48 81 111 107 261 108
l97 1 0 -75z"/>
<path d="M679 1346 c-2 -3 -37 -9 -77 -14 -90 -13 -122 -32 -122 -72 0 -54 60
-81 137 -61 52 14 71 37 79 93 5 39 -4 67 -17 54z"/>
<path d="M2148 1335 c-85 -15 -113 -27 -128 -55 -30 -55 50 -105 131 -81 60
18 79 42 79 101 0 28 -1 49 -2 49 -2 -1 -37 -7 -80 -14z"/>
</g>
</svg>
